<svg width="49" height="207" viewBox="0 0 49 207" fill="none" xmlns="http://www.w3.org/2000/svg">
<path d="M5.30277e-05 1.65177C0.238369 31.6141 2.00937 61.5802 5.71559 91.3513C8.96573 117.451 12.4501 144.284 22.0978 169.125C27.2134 182.301 34.2026 194.827 44.2283 205.356C46.0978 207.322 48.9864 204.488 47.2771 202.518C30.521 183.17 22.0567 159.449 16.8178 135.396C10.786 107.705 7.37967 79.4145 4.86091 51.2766C3.38171 34.7618 2.50247 18.2201 2.15321 1.65177C2.12856 0.359038 -0.0122737 0.355213 5.30277e-05 1.65177Z" fill="white"/>
<path d="M48.9862 203.823C48.4808 200.951 47.0591 198.162 46.377 195.298C45.658 192.272 45.2964 189.289 45.4196 186.187C45.4936 184.375 42.5598 184.413 42.416 186.187C42.1448 189.488 42.2886 192.904 43.1268 196.132C43.8746 199.011 45.1567 202.542 47.5399 204.607C48.2096 205.192 49.1218 204.599 48.9862 203.823Z" fill="white"/>
<path d="M45.3053 204.244C41.3566 202.985 37.5313 202.022 34.0387 199.784C30.6407 197.608 27.9987 194.518 26.2647 191.053C25.2457 189.014 21.408 190.479 22.3201 192.602C24.1979 196.962 27.3618 200.53 31.6597 203.02C35.559 205.28 40.7855 206.864 45.3053 205.525C45.9915 205.318 45.9709 204.454 45.3053 204.244Z" fill="white"/>
</svg>
