<svg width="101" height="185" viewBox="0 0 101 185" fill="none" xmlns="http://www.w3.org/2000/svg">
<path d="M50.3829 5.65817C69.1879 14.1385 79.4772 36.6648 78.8989 59.3417C78.1818 87.5601 63.0649 113.991 44.7191 134.783C34.2689 146.626 22.6005 157.079 10.7079 167.06C7.65112 169.628 10.1897 174.962 13.2925 172.375C35.8631 153.523 58.3233 132.624 72.044 105.018C84.4631 80.0269 89.039 50.5372 77.4315 26.9609C71.8853 15.6912 62.7508 7.08043 51.4898 3.06402C50.1947 2.59694 49.1127 5.08325 50.3829 5.65817Z" fill="white"/>
<path d="M14.7311 173.323C20.9632 172.526 27.2465 171.973 33.4533 171.843C39.6793 171.719 45.852 172.263 52.0844 171.93C54.4844 171.799 55.1478 167.901 52.8694 167.341C40.9035 164.408 26.8407 166.731 14.4997 170.075C12.7979 170.546 12.9992 173.546 14.7311 173.323Z" fill="white"/>
<path d="M14.9065 167.057C18.1797 155.841 19.925 143.608 18.0213 132.522C17.6209 130.207 14.5525 131.411 14.7482 133.668C15.7096 144.761 16.0299 155.432 13.6697 166.763C13.4822 167.651 14.6375 167.971 14.9065 167.057Z" fill="white"/>
</svg>
